<?xml version="1.0" encoding="UTF-8" standalone="no"?><!DOCTYPE svg PUBLIC "-//W3C//DTD SVG 1.1//EN" "http://www.w3.org/Graphics/SVG/1.1/DTD/svg11.dtd"><svg width="2483px" height="2499px" version="1.1" xmlns="http://www.w3.org/2000/svg" xmlns:xlink="http://www.w3.org/1999/xlink" xml:space="preserve" xmlns:serif="http://www.serif.com/" style="fill-rule:evenodd;clip-rule:evenodd;stroke-linejoin:round;stroke-miterlimit:2;"><g><rect x="2013.3" y="255.467" width="468.962" height="1220.92" style="fill:#fff;fill-rule:nonzero;"/><path d="M369.623,1487.55L0,1487.55C0,1895.83 330.974,2226.8 739.255,2226.8C1147.53,2226.8 1478.5,1895.83 1478.5,1487.55L1108.88,1487.55C1108.88,1489.23 1108.87,1490.89 1108.85,1492.56L369.664,1492.56C369.639,1490.89 369.626,1489.22 369.623,1487.55Z" style="fill:#fff;"/><path d="M2111.49,1487.55L2481.11,1487.55C2481.11,1079.27 2150.14,748.298 1741.86,748.298C1333.58,748.298 1002.61,1079.27 1002.61,1487.55L1372.23,1487.55L1372.25,1484.47L2111.47,1484.47L2111.49,1487.55Z" style="fill:#fff;"/><path d="M762.886,748.495C768.09,686.028 768.098,623.485 747.34,623.308L747.34,623.298C1224.65,623.298 1611.59,1010.24 1611.59,1487.55L1611.59,1612.55L1602.68,1612.55L1602.64,1617.56L875.654,1617.56L877.593,1490.65C877.604,1489.94 877.609,1489.23 877.609,1488.52C877.609,1413.8 818.034,1352.88 743.826,1350.79L622.336,1347.38L622.336,873.411L747.336,873.298L747.336,1225.84C888.9,1229.82 1002.61,1345.99 1002.61,1488.52C1002.61,1489.86 1002.6,1491.21 1002.58,1492.56L1478.48,1492.56C1478.5,1490.9 1478.5,1489.23 1478.5,1487.55L1486.59,1487.55C1486.59,1084.46 1163.97,756.718 762.886,748.495ZM747.336,873.292C746.41,871.852 586.993,623.425 747.241,623.298L747.34,623.308L747.34,748.298L747.336,748.298L747.336,873.292Z" style="fill:#651fff;"/><path d="M1001.62,1362.61L1001.6,1358.51L1614,1358.51L1611.61,1485.85C1611.6,1486.74 1611.59,1487.63 1611.59,1488.52C1611.59,1563.23 1671.16,1624.15 1745.37,1626.24L1866.86,1629.65L1866.86,2343.71L1741.86,2343.71C1309.8,2343.71 951.795,2026.65 887.854,1612.55L877.609,1612.55L877.609,1487.55C877.609,1485.98 877.614,1484.4 877.622,1482.82L1001.09,1606.97C991.099,1570.28 938.146,1364.79 1001.62,1362.61ZM1002.62,1483.51L1486.63,1483.51C1486.6,1485.18 1486.59,1486.85 1486.59,1488.52C1486.59,1631.04 1600.3,1747.21 1741.86,1751.19L1741.86,2218.71C1336.28,2218.71 1006.98,1892.09 1002.65,1487.55L1002.61,1487.55C1002.61,1486.21 1002.61,1484.86 1002.62,1483.51L1002.62,1483.51ZM1006.66,1608.51L1002.72,1612.45L1002.65,1612.55L1006.66,1608.51Z" style="fill:#651fff;"/><rect x="0" y="255.467" width="477.048" height="1237.09" style="fill:#fff;fill-rule:nonzero;"/><path d="M1372.23,1479.47L1002.61,1479.47C1002.61,1887.74 1333.58,2218.71 1741.86,2218.71C2150.14,2218.71 2481.11,1887.74 2481.11,1479.47L2111.49,1479.47C2111.49,1481.14 2111.48,1482.81 2111.45,1484.47L1372.27,1484.47C1372.25,1482.81 1372.23,1481.14 1372.23,1479.47Z" style="fill:#fff;"/><path d="M1123.86,1487.55L1486.59,1487.55C1486.59,1079.27 1155.61,748.298 747.34,748.298C339.06,748.298 8.086,1079.27 8.086,1487.55L347.711,1487.55C347.687,1489.22 347.679,1490.88 347.679,1492.56L1123.89,1492.56C1123.89,1490.88 1123.88,1489.22 1123.86,1487.55Z" style="fill:#fff;"/><circle cx="739.829" cy="1488.52" r="262.781" style="fill:#651fff;"/><circle cx="1749.37" cy="1488.52" r="262.781" style="fill:#651fff;"/></g><rect x="0" y="0" width="2482.27" height="2482.27" style="fill:none;"/><rect x="2011.96" y="1478.58" width="104.808" height="11.611" style="fill:#fff;"/><rect x="372.24" y="1486.26" width="104.808" height="11.611" style="fill:#fff;"/></svg>