<?xml version="1.0" encoding="UTF-8" standalone="no"?><!DOCTYPE svg PUBLIC "-//W3C//DTD SVG 1.1//EN" "http://www.w3.org/Graphics/SVG/1.1/DTD/svg11.dtd"><svg width="1958px" height="1958px" version="1.1" xmlns="http://www.w3.org/2000/svg" xmlns:xlink="http://www.w3.org/1999/xlink" xml:space="preserve" xmlns:serif="http://www.serif.com/" style="fill-rule:evenodd;clip-rule:evenodd;stroke-linejoin:round;stroke-miterlimit:2;"><circle cx="978.94" cy="978.94" r="978.94" style="fill:#fff;"/><g><path d="M1014.38,563.089C968.933,555.186 921.51,551.234 866.184,555.186C773.314,559.137 684.396,592.729 684.396,592.729L445.305,436.628C437.402,432.676 427.522,438.604 429.498,446.508L470.993,800.204C482.849,784.396 261.542,1053.13 401.834,1278.38C542.127,1503.64 840.496,1604.42 1211.98,1531.31C1583.45,1458.2 1670.4,1244.79 1646.69,1132.16C1622.97,1019.53 1482.68,978.04 1482.68,978.04C1482.68,978.04 1480.7,889.122 1417.48,780.444C1379.93,715.238 1253.47,622.368 1253.47,622.368L1202.1,410.941C1200.12,403.037 1190.24,401.061 1184.31,405.013L1014.38,563.089Z" style="fill:#651fff;"/><path id="mouth" d="M854.328,1197.37C854.328,1189.47 862.232,1183.54 870.136,1185.52C907.679,1199.35 1014.38,1230.96 1132.94,1238.87C1239.64,1244.79 1302.87,1238.87 1332.51,1232.94C1342.39,1230.96 1350.29,1240.84 1346.34,1250.72C1328.56,1304.07 1253.47,1452.27 1046,1440.41C866.184,1420.65 848.4,1294.19 854.328,1197.37Z" style="fill:#fff;"/></g></svg>